<svg width="680" height="650" viewBox="0 0 680 650" xmlns="http://www.w3.org/2000/svg" role="img">
<title>Helmet logo</title>
<desc>A round helmet-shaped logo icon: a blue banded crown over the top-left, a white visor face on the right, and a gray segmented chin band at the bottom, with a small white vent detail on the left edge.</desc>
<defs>
<clipPath id="discClip2"><circle cx="340" cy="340" r="284"/></clipPath>
</defs>
<circle cx="340" cy="340" r="290" fill="#FFFFFF" stroke="#0B1420" stroke-width="12"/>
<path d="M195,525 A235,235 0 1,1 497,165" fill="none" stroke="#2FA8E0" stroke-width="120" stroke-linecap="round" clip-path="url(#discClip2)"/>
<path d="M413,564 A235,235 0 0,1 195,525" fill="none" stroke="#B9C4CC" stroke-width="100" stroke-linecap="round" clip-path="url(#discClip2)"/>
<path d="M215,470 A235,235 0 0,1 300,215" fill="none" stroke="#7FE0F5" stroke-width="34" stroke-linecap="round" opacity="0.85" clip-path="url(#discClip2)"/>
<path d="M470,230 Q425,300 435,400" stroke="#0B1420" stroke-width="5" fill="none" stroke-linecap="round" clip-path="url(#discClip2)"/>
<path d="M340,500 L340,555" stroke="#0B1420" stroke-width="5" stroke-linecap="round" clip-path="url(#discClip2)"/>
<path d="M395,485 L410,538" stroke="#0B1420" stroke-width="5" stroke-linecap="round" clip-path="url(#discClip2)"/>
<path d="M285,485 L270,538" stroke="#0B1420" stroke-width="5" stroke-linecap="round" clip-path="url(#discClip2)"/>
<path d="M255,515 L370,555" stroke="#F2F6F8" stroke-width="5" stroke-linecap="round" opacity="0.8" clip-path="url(#discClip2)"/>
<ellipse cx="95" cy="460" rx="36" ry="44" fill="#F2F6F8" stroke="#0B1420" stroke-width="6"/>
<circle cx="340" cy="340" r="290" fill="none" stroke="#0B1420" stroke-width="12"/>
</svg>
